<svg width="385" height="112" viewBox="0 0 385 112" fill="none" xmlns="http://www.w3.org/2000/svg">
<path d="M51.4352 10C51.7456 10 52.0588 10 52.3692 10.013L52.3692 81.1922C52.3676 86.7116 49.4817 92.0044 44.346 95.9066C39.2104 99.8087 32.2457 102.001 24.984 102C24.6736 102 24.3718 102 24.0615 101.987L24.0615 30.8143C24.0607 28.0815 24.7682 25.3753 26.1434 22.8503C27.5187 20.3253 29.5348 18.0309 32.0767 16.0981C34.6186 14.1654 37.6365 12.632 40.958 11.5857C44.2795 10.5394 47.8397 10.0006 51.4352 10Z" fill="url(#paint0_linear_966_12368)"/>
<circle cx="17.6922" cy="78.6462" r="17.6923" fill="url(#paint1_linear_966_12368)"/>
<circle cx="58.7384" cy="33.3539" r="17.6923" fill="url(#paint2_linear_966_12368)"/>
<path d="M107.424 68.5435C103.846 68.5435 100.381 68 97.0291 66.913C93.7227 65.7807 91.1184 64.3313 89.2161 62.5649L91.7299 57.2657C93.5416 58.8962 95.8515 60.2324 98.6596 61.2741C101.513 62.2705 104.434 62.7687 107.424 62.7687C111.364 62.7687 114.308 62.112 116.256 60.7985C118.203 59.4398 119.177 57.6507 119.177 55.4314C119.177 53.8009 118.633 52.4874 117.546 51.491C116.505 50.4492 115.191 49.6566 113.606 49.1131C112.066 48.5696 109.869 47.9582 107.016 47.2788C103.438 46.4182 100.539 45.5577 98.3199 44.6971C96.1459 43.8366 94.2662 42.5231 92.681 40.7567C91.1411 38.945 90.3711 36.5218 90.3711 33.4873C90.3711 30.9509 91.0278 28.6636 92.3413 26.6255C93.7001 24.5873 95.7382 22.9568 98.4558 21.7339C101.173 20.511 104.548 19.8996 108.579 19.8996C111.387 19.8996 114.15 20.2619 116.867 20.9866C119.585 21.7113 121.917 22.753 123.865 24.1118L121.623 29.5468C119.63 28.2786 117.501 27.3275 115.237 26.6934C112.972 26.014 110.753 25.6743 108.579 25.6743C104.729 25.6743 101.83 26.3764 99.8825 27.7804C97.9802 29.1845 97.0291 30.9962 97.0291 33.2155C97.0291 34.846 97.5726 36.1822 98.6596 37.2239C99.7466 38.2203 101.083 39.0129 102.668 39.6017C104.298 40.1452 106.495 40.734 109.258 41.3681C112.836 42.2287 115.712 43.0892 117.886 43.9498C120.06 44.8103 121.917 46.1238 123.457 47.8902C125.042 49.6566 125.835 52.0345 125.835 55.0238C125.835 57.5148 125.156 59.8021 123.797 61.8855C122.438 63.9237 120.377 65.5542 117.614 66.7771C114.852 67.9547 111.455 68.5435 107.424 68.5435ZM135.76 20.4431H142.554V68H135.76V20.4431ZM188.587 68L178.329 53.3932C177.06 53.4838 176.064 53.5291 175.339 53.5291H163.586V68H156.792V20.4431H175.339C181.499 20.4431 186.345 21.9151 189.878 24.8591C193.411 27.8031 195.177 31.8567 195.177 37.0201C195.177 40.6887 194.271 43.8139 192.46 46.3956C190.648 48.9772 188.066 50.8569 184.715 52.0345L195.993 68H188.587ZM175.135 47.7543C179.438 47.7543 182.722 46.8258 184.987 44.9689C187.251 43.1119 188.383 40.4623 188.383 37.0201C188.383 33.5778 187.251 30.9509 184.987 29.1392C182.722 27.2822 179.438 26.3537 175.135 26.3537H163.586V47.7543H175.135ZM240.666 62.0894V68H206.154V20.4431H239.715V26.3537H212.947V40.9605H236.794V46.7353H212.947V62.0894H240.666ZM295.759 68L295.691 33.3514L278.503 62.2252H275.378L258.189 33.5552V68H251.667V20.4431H257.238L277.076 53.8688L296.642 20.4431H302.213L302.281 68H295.759ZM346.854 56.1108H321.581L316.35 68H309.352L330.889 20.4431H337.615L359.219 68H352.085L346.854 56.1108ZM344.476 50.6757L334.218 27.3728L323.959 50.6757H344.476Z" fill="#1B1B1B"/>
<path d="M90.7287 100.084C90.0007 100.084 89.3007 99.9673 88.6287 99.734C87.966 99.5007 87.4527 99.1927 87.0887 98.81L87.4947 98.012C87.8493 98.3667 88.3207 98.656 88.9087 98.88C89.4967 99.0947 90.1033 99.202 90.7287 99.202C91.606 99.202 92.264 99.0433 92.7027 98.726C93.1413 98.3993 93.3607 97.9793 93.3607 97.466C93.3607 97.074 93.2393 96.7613 92.9967 96.528C92.7633 96.2947 92.474 96.1173 92.1287 95.996C91.7833 95.8653 91.3027 95.7253 90.6867 95.576C89.9493 95.3893 89.3613 95.212 88.9227 95.044C88.484 94.8667 88.106 94.6007 87.7887 94.246C87.4807 93.8913 87.3267 93.4107 87.3267 92.804C87.3267 92.3093 87.4573 91.8613 87.7187 91.46C87.98 91.0493 88.3813 90.7227 88.9227 90.48C89.464 90.2373 90.136 90.116 90.9387 90.116C91.4987 90.116 92.0447 90.1953 92.5767 90.354C93.118 90.5033 93.5847 90.7133 93.9767 90.984L93.6267 91.81C93.216 91.5393 92.7773 91.3387 92.3107 91.208C91.844 91.068 91.3867 90.998 90.9387 90.998C90.08 90.998 89.4313 91.166 88.9927 91.502C88.5633 91.8287 88.3487 92.2533 88.3487 92.776C88.3487 93.168 88.4653 93.4853 88.6987 93.728C88.9413 93.9613 89.24 94.1433 89.5947 94.274C89.9587 94.3953 90.444 94.5307 91.0507 94.68C91.7693 94.8573 92.348 95.0347 92.7867 95.212C93.2347 95.38 93.6127 95.6413 93.9207 95.996C94.2287 96.3413 94.3827 96.8127 94.3827 97.41C94.3827 97.9047 94.2473 98.3573 93.9767 98.768C93.7153 99.1693 93.3093 99.4913 92.7587 99.734C92.208 99.9673 91.5313 100.084 90.7287 100.084ZM96.4299 92.636H97.4239V100H96.4299V92.636ZM96.9339 91.026C96.7286 91.026 96.5559 90.956 96.4159 90.816C96.2759 90.676 96.2059 90.508 96.2059 90.312C96.2059 90.1253 96.2759 89.962 96.4159 89.822C96.5559 89.682 96.7286 89.612 96.9339 89.612C97.1393 89.612 97.3119 89.682 97.4519 89.822C97.5919 89.9527 97.6619 90.1113 97.6619 90.298C97.6619 90.5033 97.5919 90.676 97.4519 90.816C97.3119 90.956 97.1393 91.026 96.9339 91.026ZM102.164 100.07C101.566 100.07 100.992 99.986 100.442 99.818C99.9004 99.6407 99.4757 99.4213 99.1677 99.16L99.6157 98.376C99.9237 98.6187 100.311 98.8193 100.778 98.978C101.244 99.1273 101.73 99.202 102.234 99.202C102.906 99.202 103.4 99.0993 103.718 98.894C104.044 98.6793 104.208 98.3807 104.208 97.998C104.208 97.7273 104.119 97.5173 103.942 97.368C103.764 97.2093 103.54 97.0927 103.27 97.018C102.999 96.934 102.64 96.8547 102.192 96.78C101.594 96.668 101.114 96.556 100.75 96.444C100.386 96.3227 100.073 96.122 99.8117 95.842C99.5597 95.562 99.4337 95.1747 99.4337 94.68C99.4337 94.064 99.6904 93.56 100.204 93.168C100.717 92.776 101.431 92.58 102.346 92.58C102.822 92.58 103.298 92.6453 103.774 92.776C104.25 92.8973 104.642 93.0607 104.95 93.266L104.516 94.064C103.909 93.644 103.186 93.434 102.346 93.434C101.711 93.434 101.23 93.546 100.904 93.77C100.586 93.994 100.428 94.288 100.428 94.652C100.428 94.932 100.516 95.156 100.694 95.324C100.88 95.492 101.109 95.618 101.38 95.702C101.65 95.7767 102.024 95.856 102.5 95.94C103.088 96.052 103.559 96.164 103.914 96.276C104.268 96.388 104.572 96.5793 104.824 96.85C105.076 97.1207 105.202 97.494 105.202 97.97C105.202 98.614 104.931 99.1273 104.39 99.51C103.858 99.8833 103.116 100.07 102.164 100.07ZM110.917 99.552C110.731 99.72 110.497 99.8507 110.217 99.944C109.947 100.028 109.662 100.07 109.363 100.07C108.673 100.07 108.141 99.8833 107.767 99.51C107.394 99.1367 107.207 98.6093 107.207 97.928V93.476H105.891V92.636H107.207V91.026H108.201V92.636H110.441V93.476H108.201V97.872C108.201 98.3107 108.309 98.6467 108.523 98.88C108.747 99.104 109.065 99.216 109.475 99.216C109.681 99.216 109.877 99.1833 110.063 99.118C110.259 99.0527 110.427 98.9593 110.567 98.838L110.917 99.552ZM118.879 96.626H112.719C112.775 97.3913 113.069 98.012 113.601 98.488C114.133 98.9547 114.805 99.188 115.617 99.188C116.074 99.188 116.494 99.1087 116.877 98.95C117.26 98.782 117.591 98.5393 117.871 98.222L118.431 98.866C118.104 99.258 117.694 99.5567 117.199 99.762C116.714 99.9673 116.177 100.07 115.589 100.07C114.833 100.07 114.161 99.9113 113.573 99.594C112.994 99.2673 112.542 98.8193 112.215 98.25C111.888 97.6807 111.725 97.0367 111.725 96.318C111.725 95.5993 111.879 94.9553 112.187 94.386C112.504 93.8167 112.934 93.3733 113.475 93.056C114.026 92.7387 114.642 92.58 115.323 92.58C116.004 92.58 116.616 92.7387 117.157 93.056C117.698 93.3733 118.123 93.8167 118.431 94.386C118.739 94.946 118.893 95.59 118.893 96.318L118.879 96.626ZM115.323 93.434C114.614 93.434 114.016 93.6627 113.531 94.12C113.055 94.568 112.784 95.156 112.719 95.884H117.941C117.876 95.156 117.6 94.568 117.115 94.12C116.639 93.6627 116.042 93.434 115.323 93.434ZM130.1 92.58C131.024 92.58 131.748 92.846 132.27 93.378C132.802 93.91 133.068 94.694 133.068 95.73V100H132.074V95.828C132.074 95.0627 131.888 94.4793 131.514 94.078C131.15 93.6767 130.632 93.476 129.96 93.476C129.195 93.476 128.593 93.714 128.154 94.19C127.716 94.6567 127.496 95.3053 127.496 96.136V100H126.502V95.828C126.502 95.0627 126.316 94.4793 125.942 94.078C125.578 93.6767 125.056 93.476 124.374 93.476C123.618 93.476 123.016 93.714 122.568 94.19C122.13 94.6567 121.91 95.3053 121.91 96.136V100H120.916V92.636H121.868V93.98C122.13 93.532 122.494 93.1867 122.96 92.944C123.427 92.7013 123.964 92.58 124.57 92.58C125.186 92.58 125.718 92.7107 126.166 92.972C126.624 93.2333 126.964 93.6207 127.188 94.134C127.459 93.6487 127.846 93.2707 128.35 93C128.864 92.72 129.447 92.58 130.1 92.58ZM146.33 100L144.09 96.85C143.838 96.878 143.577 96.892 143.306 96.892H140.674V100H139.638V90.2H143.306C144.557 90.2 145.537 90.4987 146.246 91.096C146.955 91.6933 147.31 92.5147 147.31 93.56C147.31 94.3253 147.114 94.974 146.722 95.506C146.339 96.0287 145.789 96.4067 145.07 96.64L147.464 100H146.33ZM143.278 96.01C144.249 96.01 144.991 95.7953 145.504 95.366C146.017 94.9367 146.274 94.3347 146.274 93.56C146.274 92.7667 146.017 92.16 145.504 91.74C144.991 91.3107 144.249 91.096 143.278 91.096H140.674V96.01H143.278ZM155.957 96.626H149.797C149.853 97.3913 150.147 98.012 150.679 98.488C151.211 98.9547 151.883 99.188 152.695 99.188C153.153 99.188 153.573 99.1087 153.955 98.95C154.338 98.782 154.669 98.5393 154.949 98.222L155.509 98.866C155.183 99.258 154.772 99.5567 154.277 99.762C153.792 99.9673 153.255 100.07 152.667 100.07C151.911 100.07 151.239 99.9113 150.651 99.594C150.073 99.2673 149.62 98.8193 149.293 98.25C148.967 97.6807 148.803 97.0367 148.803 96.318C148.803 95.5993 148.957 94.9553 149.265 94.386C149.583 93.8167 150.012 93.3733 150.553 93.056C151.104 92.7387 151.72 92.58 152.401 92.58C153.083 92.58 153.694 92.7387 154.235 93.056C154.777 93.3733 155.201 93.8167 155.509 94.386C155.817 94.946 155.971 95.59 155.971 96.318L155.957 96.626ZM152.401 93.434C151.692 93.434 151.095 93.6627 150.609 94.12C150.133 94.568 149.863 95.156 149.797 95.884H155.019C154.954 95.156 154.679 94.568 154.193 94.12C153.717 93.6627 153.12 93.434 152.401 93.434ZM160.724 96.304L158.988 97.9V100H157.994V89.612H158.988V96.654L163.384 92.636H164.616L161.466 95.646L164.91 100H163.692L160.724 96.304ZM169.112 100.07C168.402 100.07 167.763 99.9113 167.194 99.594C166.624 99.2673 166.176 98.8193 165.85 98.25C165.523 97.6807 165.36 97.0367 165.36 96.318C165.36 95.5993 165.523 94.9553 165.85 94.386C166.176 93.8167 166.624 93.3733 167.194 93.056C167.763 92.7387 168.402 92.58 169.112 92.58C169.821 92.58 170.46 92.7387 171.03 93.056C171.599 93.3733 172.042 93.8167 172.36 94.386C172.686 94.9553 172.85 95.5993 172.85 96.318C172.85 97.0367 172.686 97.6807 172.36 98.25C172.042 98.8193 171.599 99.2673 171.03 99.594C170.46 99.9113 169.821 100.07 169.112 100.07ZM169.112 99.188C169.634 99.188 170.101 99.0713 170.512 98.838C170.932 98.5953 171.258 98.2547 171.492 97.816C171.725 97.3773 171.842 96.878 171.842 96.318C171.842 95.758 171.725 95.2587 171.492 94.82C171.258 94.3813 170.932 94.0453 170.512 93.812C170.101 93.5693 169.634 93.448 169.112 93.448C168.589 93.448 168.118 93.5693 167.698 93.812C167.287 94.0453 166.96 94.3813 166.718 94.82C166.484 95.2587 166.368 95.758 166.368 96.318C166.368 96.878 166.484 97.3773 166.718 97.816C166.96 98.2547 167.287 98.5953 167.698 98.838C168.118 99.0713 168.589 99.188 169.112 99.188ZM184.063 92.58C184.987 92.58 185.71 92.846 186.233 93.378C186.765 93.91 187.031 94.694 187.031 95.73V100H186.037V95.828C186.037 95.0627 185.85 94.4793 185.477 94.078C185.113 93.6767 184.595 93.476 183.923 93.476C183.158 93.476 182.556 93.714 182.117 94.19C181.678 94.6567 181.459 95.3053 181.459 96.136V100H180.465V95.828C180.465 95.0627 180.278 94.4793 179.905 94.078C179.541 93.6767 179.018 93.476 178.337 93.476C177.581 93.476 176.979 93.714 176.531 94.19C176.092 94.6567 175.873 95.3053 175.873 96.136V100H174.879V92.636H175.831V93.98C176.092 93.532 176.456 93.1867 176.923 92.944C177.39 92.7013 177.926 92.58 178.533 92.58C179.149 92.58 179.681 92.7107 180.129 92.972C180.586 93.2333 180.927 93.6207 181.151 94.134C181.422 93.6487 181.809 93.2707 182.313 93C182.826 92.72 183.41 92.58 184.063 92.58ZM196.166 96.626H190.006C190.062 97.3913 190.356 98.012 190.888 98.488C191.42 98.9547 192.092 99.188 192.904 99.188C193.361 99.188 193.781 99.1087 194.164 98.95C194.547 98.782 194.878 98.5393 195.158 98.222L195.718 98.866C195.391 99.258 194.981 99.5567 194.486 99.762C194.001 99.9673 193.464 100.07 192.876 100.07C192.12 100.07 191.448 99.9113 190.86 99.594C190.281 99.2673 189.829 98.8193 189.502 98.25C189.175 97.6807 189.012 97.0367 189.012 96.318C189.012 95.5993 189.166 94.9553 189.474 94.386C189.791 93.8167 190.221 93.3733 190.762 93.056C191.313 92.7387 191.929 92.58 192.61 92.58C193.291 92.58 193.903 92.7387 194.444 93.056C194.985 93.3733 195.41 93.8167 195.718 94.386C196.026 94.946 196.18 95.59 196.18 96.318L196.166 96.626ZM192.61 93.434C191.901 93.434 191.303 93.6627 190.818 94.12C190.342 94.568 190.071 95.156 190.006 95.884H195.228C195.163 95.156 194.887 94.568 194.402 94.12C193.926 93.6627 193.329 93.434 192.61 93.434ZM201.955 92.58C202.879 92.58 203.612 92.8507 204.153 93.392C204.704 93.924 204.979 94.7033 204.979 95.73V100H203.985V95.828C203.985 95.0627 203.794 94.4793 203.411 94.078C203.029 93.6767 202.483 93.476 201.773 93.476C200.98 93.476 200.35 93.714 199.883 94.19C199.426 94.6567 199.197 95.3053 199.197 96.136V100H198.203V92.636H199.155V93.994C199.426 93.546 199.799 93.2007 200.275 92.958C200.761 92.706 201.321 92.58 201.955 92.58ZM214.425 89.612V100H213.473V98.544C213.175 99.0387 212.778 99.4167 212.283 99.678C211.798 99.9393 211.247 100.07 210.631 100.07C209.941 100.07 209.315 99.9113 208.755 99.594C208.195 99.2767 207.757 98.8333 207.439 98.264C207.122 97.6947 206.963 97.046 206.963 96.318C206.963 95.59 207.122 94.9413 207.439 94.372C207.757 93.8027 208.195 93.364 208.755 93.056C209.315 92.7387 209.941 92.58 210.631 92.58C211.229 92.58 211.765 92.706 212.241 92.958C212.727 93.2007 213.123 93.56 213.431 94.036V89.612H214.425ZM210.715 99.188C211.229 99.188 211.691 99.0713 212.101 98.838C212.521 98.5953 212.848 98.2547 213.081 97.816C213.324 97.3773 213.445 96.878 213.445 96.318C213.445 95.758 213.324 95.2587 213.081 94.82C212.848 94.3813 212.521 94.0453 212.101 93.812C211.691 93.5693 211.229 93.448 210.715 93.448C210.193 93.448 209.721 93.5693 209.301 93.812C208.891 94.0453 208.564 94.3813 208.321 94.82C208.088 95.2587 207.971 95.758 207.971 96.318C207.971 96.878 208.088 97.3773 208.321 97.816C208.564 98.2547 208.891 98.5953 209.301 98.838C209.721 99.0713 210.193 99.188 210.715 99.188ZM219.77 92.58C220.731 92.58 221.468 92.8227 221.982 93.308C222.495 93.784 222.752 94.4933 222.752 95.436V100H221.8V98.852C221.576 99.2347 221.244 99.5333 220.806 99.748C220.376 99.9627 219.863 100.07 219.266 100.07C218.444 100.07 217.791 99.874 217.306 99.482C216.82 99.09 216.578 98.572 216.578 97.928C216.578 97.3027 216.802 96.7987 217.25 96.416C217.707 96.0333 218.43 95.842 219.42 95.842H221.758V95.394C221.758 94.7593 221.58 94.2787 221.226 93.952C220.871 93.616 220.353 93.448 219.672 93.448C219.205 93.448 218.757 93.5273 218.328 93.686C217.898 93.8353 217.53 94.0453 217.222 94.316L216.774 93.574C217.147 93.2567 217.595 93.014 218.118 92.846C218.64 92.6687 219.191 92.58 219.77 92.58ZM219.42 99.286C219.98 99.286 220.46 99.16 220.862 98.908C221.263 98.6467 221.562 98.2733 221.758 97.788V96.584H219.448C218.188 96.584 217.558 97.0227 217.558 97.9C217.558 98.3293 217.721 98.67 218.048 98.922C218.374 99.1647 218.832 99.286 219.42 99.286ZM227.425 100.07C226.828 100.07 226.254 99.986 225.703 99.818C225.162 99.6407 224.737 99.4213 224.429 99.16L224.877 98.376C225.185 98.6187 225.573 98.8193 226.039 98.978C226.506 99.1273 226.991 99.202 227.495 99.202C228.167 99.202 228.662 99.0993 228.979 98.894C229.306 98.6793 229.469 98.3807 229.469 97.998C229.469 97.7273 229.381 97.5173 229.203 97.368C229.026 97.2093 228.802 97.0927 228.531 97.018C228.261 96.934 227.901 96.8547 227.453 96.78C226.856 96.668 226.375 96.556 226.011 96.444C225.647 96.3227 225.335 96.122 225.073 95.842C224.821 95.562 224.695 95.1747 224.695 94.68C224.695 94.064 224.952 93.56 225.465 93.168C225.979 92.776 226.693 92.58 227.607 92.58C228.083 92.58 228.559 92.6453 229.035 92.776C229.511 92.8973 229.903 93.0607 230.211 93.266L229.777 94.064C229.171 93.644 228.447 93.434 227.607 93.434C226.973 93.434 226.492 93.546 226.165 93.77C225.848 93.994 225.689 94.288 225.689 94.652C225.689 94.932 225.778 95.156 225.955 95.324C226.142 95.492 226.371 95.618 226.641 95.702C226.912 95.7767 227.285 95.856 227.761 95.94C228.349 96.052 228.821 96.164 229.175 96.276C229.53 96.388 229.833 96.5793 230.085 96.85C230.337 97.1207 230.463 97.494 230.463 97.97C230.463 98.614 230.193 99.1273 229.651 99.51C229.119 99.8833 228.377 100.07 227.425 100.07ZM232.301 92.636H233.295V100H232.301V92.636ZM232.805 91.026C232.6 91.026 232.427 90.956 232.287 90.816C232.147 90.676 232.077 90.508 232.077 90.312C232.077 90.1253 232.147 89.962 232.287 89.822C232.427 89.682 232.6 89.612 232.805 89.612C233.01 89.612 233.183 89.682 233.323 89.822C233.463 89.9527 233.533 90.1113 233.533 90.298C233.533 90.5033 233.463 90.676 233.323 90.816C233.183 90.956 233.01 91.026 232.805 91.026ZM250.113 90.2V100H249.119V92.16L245.269 98.754H244.779L240.929 92.202V100H239.935V90.2H240.789L245.045 97.466L249.259 90.2H250.113ZM255.672 92.58C256.633 92.58 257.371 92.8227 257.884 93.308C258.397 93.784 258.654 94.4933 258.654 95.436V100H257.702V98.852C257.478 99.2347 257.147 99.5333 256.708 99.748C256.279 99.9627 255.765 100.07 255.168 100.07C254.347 100.07 253.693 99.874 253.208 99.482C252.723 99.09 252.48 98.572 252.48 97.928C252.48 97.3027 252.704 96.7987 253.152 96.416C253.609 96.0333 254.333 95.842 255.322 95.842H257.66V95.394C257.66 94.7593 257.483 94.2787 257.128 93.952C256.773 93.616 256.255 93.448 255.574 93.448C255.107 93.448 254.659 93.5273 254.23 93.686C253.801 93.8353 253.432 94.0453 253.124 94.316L252.676 93.574C253.049 93.2567 253.497 93.014 254.02 92.846C254.543 92.6687 255.093 92.58 255.672 92.58ZM255.322 99.286C255.882 99.286 256.363 99.16 256.764 98.908C257.165 98.6467 257.464 98.2733 257.66 97.788V96.584H255.35C254.09 96.584 253.46 97.0227 253.46 97.9C253.46 98.3293 253.623 98.67 253.95 98.922C254.277 99.1647 254.734 99.286 255.322 99.286ZM265.232 99.552C265.045 99.72 264.812 99.8507 264.532 99.944C264.261 100.028 263.976 100.07 263.678 100.07C262.987 100.07 262.455 99.8833 262.082 99.51C261.708 99.1367 261.522 98.6093 261.522 97.928V93.476H260.206V92.636H261.522V91.026H262.516V92.636H264.756V93.476H262.516V97.872C262.516 98.3107 262.623 98.6467 262.838 98.88C263.062 99.104 263.379 99.216 263.79 99.216C263.995 99.216 264.191 99.1833 264.378 99.118C264.574 99.0527 264.742 98.9593 264.882 98.838L265.232 99.552ZM269.617 92.58C270.579 92.58 271.316 92.8227 271.829 93.308C272.343 93.784 272.599 94.4933 272.599 95.436V100H271.647V98.852C271.423 99.2347 271.092 99.5333 270.653 99.748C270.224 99.9627 269.711 100.07 269.113 100.07C268.292 100.07 267.639 99.874 267.153 99.482C266.668 99.09 266.425 98.572 266.425 97.928C266.425 97.3027 266.649 96.7987 267.097 96.416C267.555 96.0333 268.278 95.842 269.267 95.842H271.605V95.394C271.605 94.7593 271.428 94.2787 271.073 93.952C270.719 93.616 270.201 93.448 269.519 93.448C269.053 93.448 268.605 93.5273 268.175 93.686C267.746 93.8353 267.377 94.0453 267.069 94.316L266.621 93.574C266.995 93.2567 267.443 93.014 267.965 92.846C268.488 92.6687 269.039 92.58 269.617 92.58ZM269.267 99.286C269.827 99.286 270.308 99.16 270.709 98.908C271.111 98.6467 271.409 98.2733 271.605 97.788V96.584H269.295C268.035 96.584 267.405 97.0227 267.405 97.9C267.405 98.3293 267.569 98.67 267.895 98.922C268.222 99.1647 268.679 99.286 269.267 99.286ZM282.211 95.394L280.209 97.424V100H279.173V90.2H280.209V96.122L285.963 90.2H287.153L282.911 94.638L287.447 100H286.215L282.211 95.394ZM295.293 92.636V100H294.341V98.656C294.079 99.104 293.72 99.454 293.263 99.706C292.805 99.9487 292.283 100.07 291.695 100.07C290.733 100.07 289.973 99.804 289.413 99.272C288.862 98.7307 288.587 97.942 288.587 96.906V92.636H289.581V96.808C289.581 97.5827 289.772 98.1707 290.155 98.572C290.537 98.9733 291.083 99.174 291.793 99.174C292.567 99.174 293.179 98.9407 293.627 98.474C294.075 97.998 294.299 97.34 294.299 96.5V92.636H295.293ZM298.076 89.612H299.07V100H298.076V89.612ZM301.836 92.636H302.83V100H301.836V92.636ZM302.34 91.026C302.135 91.026 301.962 90.956 301.822 90.816C301.682 90.676 301.612 90.508 301.612 90.312C301.612 90.1253 301.682 89.962 301.822 89.822C301.962 89.682 302.135 89.612 302.34 89.612C302.546 89.612 302.718 89.682 302.858 89.822C302.998 89.9527 303.068 90.1113 303.068 90.298C303.068 90.5033 302.998 90.676 302.858 90.816C302.718 90.956 302.546 91.026 302.34 91.026ZM308.172 92.58C309.133 92.58 309.871 92.8227 310.384 93.308C310.897 93.784 311.154 94.4933 311.154 95.436V100H310.202V98.852C309.978 99.2347 309.647 99.5333 309.208 99.748C308.779 99.9627 308.265 100.07 307.668 100.07C306.847 100.07 306.193 99.874 305.708 99.482C305.223 99.09 304.98 98.572 304.98 97.928C304.98 97.3027 305.204 96.7987 305.652 96.416C306.109 96.0333 306.833 95.842 307.822 95.842H310.16V95.394C310.16 94.7593 309.983 94.2787 309.628 93.952C309.273 93.616 308.755 93.448 308.074 93.448C307.607 93.448 307.159 93.5273 306.73 93.686C306.301 93.8353 305.932 94.0453 305.624 94.316L305.176 93.574C305.549 93.2567 305.997 93.014 306.52 92.846C307.043 92.6687 307.593 92.58 308.172 92.58ZM307.822 99.286C308.382 99.286 308.863 99.16 309.264 98.908C309.665 98.6467 309.964 98.2733 310.16 97.788V96.584H307.85C306.59 96.584 305.96 97.0227 305.96 97.9C305.96 98.3293 306.123 98.67 306.45 98.922C306.777 99.1647 307.234 99.286 307.822 99.286ZM317.606 92.58C318.53 92.58 319.262 92.8507 319.804 93.392C320.354 93.924 320.63 94.7033 320.63 95.73V100H319.636V95.828C319.636 95.0627 319.444 94.4793 319.062 94.078C318.679 93.6767 318.133 93.476 317.424 93.476C316.63 93.476 316 93.714 315.534 94.19C315.076 94.6567 314.848 95.3053 314.848 96.136V100H313.854V89.612H314.848V93.924C315.118 93.4947 315.492 93.1633 315.968 92.93C316.444 92.6967 316.99 92.58 317.606 92.58ZM330.87 90.2C332.121 90.2 333.101 90.4987 333.81 91.096C334.52 91.6933 334.874 92.5147 334.874 93.56C334.874 94.6053 334.52 95.4267 333.81 96.024C333.101 96.612 332.121 96.906 330.87 96.906H328.238V100H327.202V90.2H330.87ZM330.842 95.996C331.813 95.996 332.555 95.786 333.068 95.366C333.582 94.9367 333.838 94.3347 333.838 93.56C333.838 92.7667 333.582 92.16 333.068 91.74C332.555 91.3107 331.813 91.096 330.842 91.096H328.238V95.996H330.842ZM336.713 92.636H337.707V100H336.713V92.636ZM337.217 91.026C337.012 91.026 336.839 90.956 336.699 90.816C336.559 90.676 336.489 90.508 336.489 90.312C336.489 90.1253 336.559 89.962 336.699 89.822C336.839 89.682 337.012 89.612 337.217 89.612C337.422 89.612 337.595 89.682 337.735 89.822C337.875 89.9527 337.945 90.1113 337.945 90.298C337.945 90.5033 337.875 90.676 337.735 90.816C337.595 90.956 337.422 91.026 337.217 91.026ZM340.473 89.612H341.467V100H340.473V89.612ZM344.233 92.636H345.227V100H344.233V92.636ZM344.737 91.026C344.531 91.026 344.359 90.956 344.219 90.816C344.079 90.676 344.009 90.508 344.009 90.312C344.009 90.1253 344.079 89.962 344.219 89.822C344.359 89.682 344.531 89.612 344.737 89.612C344.942 89.612 345.115 89.682 345.255 89.822C345.395 89.9527 345.465 90.1113 345.465 90.298C345.465 90.5033 345.395 90.676 345.255 90.816C345.115 90.956 344.942 91.026 344.737 91.026ZM351.744 92.58C352.668 92.58 353.401 92.8507 353.942 93.392C354.493 93.924 354.768 94.7033 354.768 95.73V100H353.774V95.828C353.774 95.0627 353.583 94.4793 353.2 94.078C352.818 93.6767 352.272 93.476 351.562 93.476C350.769 93.476 350.139 93.714 349.672 94.19C349.215 94.6567 348.986 95.3053 348.986 96.136V100H347.992V89.612H348.986V93.924C349.257 93.4947 349.63 93.1633 350.106 92.93C350.582 92.6967 351.128 92.58 351.744 92.58ZM360.043 92.58C361.004 92.58 361.742 92.8227 362.255 93.308C362.768 93.784 363.025 94.4933 363.025 95.436V100H362.073V98.852C361.849 99.2347 361.518 99.5333 361.079 99.748C360.65 99.9627 360.136 100.07 359.539 100.07C358.718 100.07 358.064 99.874 357.579 99.482C357.094 99.09 356.851 98.572 356.851 97.928C356.851 97.3027 357.075 96.7987 357.523 96.416C357.98 96.0333 358.704 95.842 359.693 95.842H362.031V95.394C362.031 94.7593 361.854 94.2787 361.499 93.952C361.144 93.616 360.626 93.448 359.945 93.448C359.478 93.448 359.03 93.5273 358.601 93.686C358.172 93.8353 357.803 94.0453 357.495 94.316L357.047 93.574C357.42 93.2567 357.868 93.014 358.391 92.846C358.914 92.6687 359.464 92.58 360.043 92.58ZM359.693 99.286C360.253 99.286 360.734 99.16 361.135 98.908C361.536 98.6467 361.835 98.2733 362.031 97.788V96.584H359.721C358.461 96.584 357.831 97.0227 357.831 97.9C357.831 98.3293 357.994 98.67 358.321 98.922C358.648 99.1647 359.105 99.286 359.693 99.286ZM369.477 92.58C370.401 92.58 371.134 92.8507 371.675 93.392C372.226 93.924 372.501 94.7033 372.501 95.73V100H371.507V95.828C371.507 95.0627 371.316 94.4793 370.933 94.078C370.55 93.6767 370.004 93.476 369.295 93.476C368.502 93.476 367.872 93.714 367.405 94.19C366.948 94.6567 366.719 95.3053 366.719 96.136V100H365.725V92.636H366.677V93.994C366.948 93.546 367.321 93.2007 367.797 92.958C368.282 92.706 368.842 92.58 369.477 92.58Z" fill="#1B1B1B"/>
<defs>
<linearGradient id="paint0_linear_966_12368" x1="68.6461" y1="108.369" x2="42.5902" y2="-6.88415" gradientUnits="userSpaceOnUse">
<stop stop-color="#09203A"/>
<stop offset="0.99" stop-color="#00859E"/>
</linearGradient>
<linearGradient id="paint1_linear_966_12368" x1="37.8343" y1="116.685" x2="-8.5352" y2="113.459" gradientUnits="userSpaceOnUse">
<stop stop-color="#09203A"/>
<stop offset="0.99" stop-color="#00859E"/>
</linearGradient>
<linearGradient id="paint2_linear_966_12368" x1="78.8804" y1="71.3923" x2="32.5109" y2="68.1668" gradientUnits="userSpaceOnUse">
<stop stop-color="#09203A"/>
<stop offset="0.99" stop-color="#00859E"/>
</linearGradient>
</defs>
</svg>
